<svg width="215" height="215" xmlns="http://www.w3.org/2000/svg">
 <g>
  <title _mstTextHash="5637814" _mstHash="1">第 1 层</title>
  <path id="svg_5" d="m107.5,212.5c-58.28729,0 -105.5,-46.98895 -105.5,-105c0,-58.01105 47.21271,-105 105.5,-105c58.28729,0 105.5,46.98895 105.5,105c0,58.01105 -47.21271,105 -105.5,105z" opacity="undefined" stroke-dasharray="5,5" stroke-width="3" stroke="#000" fill="none"/>
  <path transform="rotate(180 107.5 128)" stroke-dasharray="2,2" stroke="#000" id="svg_4" d="m25.5,210.5l82,-165l82,165l-163.99999,0z" fill="#FFF5FF"/>
  <line stroke-width="5" id="svg_9" y2="123.83348" x2="74.835" y1="70.83348" x1="95.835" stroke="#000" fill="none"/>
  <line stroke="#000" stroke-width="5" id="svg_10" y2="69.83348" x2="118.835" y1="69.83348" x1="93.835" fill="none"/>
  <line id="svg_12" y2="100.83348" x2="121.835" y1="70.83348" x1="97.835" stroke-width="5" stroke="#000" fill="none"/>
  <line id="svg_13" y2="100.83348" x2="121.835" y1="70.83348" x1="97.835" stroke-width="5" stroke="#000" fill="none"/>
  <line id="svg_14" y2="99.83348" x2="140.835" y1="69.83348" x1="116.835" stroke-width="5" stroke="#000" fill="none"/>
  <ellipse ry="18.5" rx="18.5" id="svg_15" cy="115.33348" cx="109.335" stroke-width="5" stroke="#000" fill="#CE7975"/>
 </g>

</svg>